<svg xmlns="http://www.w3.org/2000/svg" viewBox="0 0 190 285" width="190" height="285">
	<style>
		tspan { white-space:pre }
		.shp0 { fill: #ffffff } 
	</style>
	<path class="shp0" d="M58 239C57.71 238.2 84.33 246.33 105 239C107.33 252 114.67 269.67 117 272C119.33 274.33 124.83 272.83 124 271C123.17 269.17 120 268 120 268C120 268 116.33 256 116 239C121.67 242.67 133 247.33 135 246C137 244.67 128 226 128 226C128 226 129.83 222.5 131 220C132.5 221.67 137.5 225.33 135 216C145.17 212.5 157.83 206.5 157 201C156.17 195.5 150.33 183.5 144 177C143.83 173.33 144 157 144 157C144 157 160.5 165.17 174 154C187.5 142.83 184.67 122.17 179 116C173.33 109.83 165.5 109.33 161 112C159.67 108.83 146 94.83 137 115C136.17 112.33 133.5 101.17 131 95C133 91.5 135.17 83.5 127 83C127.17 77.67 124.5 68.5 120 69C115.5 69.5 115.67 75.67 116 77C113.33 75.67 108 73.5 104 73C105.5 68.67 114.5 42 122 30C127.17 28.33 133 22.5 128 17C124.67 14.33 118.83 20.5 120 26C118.67 29 106.17 55.33 101 71C96.67 69.33 79.5 67.67 68 68C69.17 62.67 76.5 31 81 22C86.67 19.17 87.33 11.33 82 10C76.67 8.67 74.5 17.67 78 21C74 30.17 65.67 61.5 64 68C61.67 70 48.55 72.73 44 72C35.3 70.6 34.73 62.6 26 66C19.81 68.41 22.67 81 27 83C25 85.5 24 99 33 104C31 112 28.83 130.67 28 145C21.17 146.5 7.67 157.17 7 163C6.33 168.83 19 179 19 179C19 179 8.83 193 9 199C9.17 205 25 214 25 214C25 214 25.17 221.17 26 222C26.83 222.83 31 216 31 216C31 216 37 226 45 231C48.67 241.83 58.83 261.83 58 269C55.83 270.5 53.5 272.17 55 274C56.5 275.83 60.5 274.83 61 271C61.5 267.17 60.5 246 58 239Z" />
</svg>