<svg xmlns="http://www.w3.org/2000/svg" viewBox="0 0 171 277" width="171" height="277">
	<style>
		tspan { white-space:pre }
		.shp0 { fill: #ffffff } 
	</style>
	<path class="shp0" d="M58 217C58 217 80.83 225.67 114 217C114.67 222.33 115.17 225.67 118 229C112 234.33 111.17 247 112 251C112 255.83 118.67 268.83 125 256C135 254 147.67 243.33 147 233C151.5 232.17 158.5 225.17 152 217C158.17 210 158.17 191.83 148 184C154.83 176.33 157 151.67 156 150C155.5 149 155 150 155 150C155 150 161.67 131.83 154 116C146.33 100.17 136.76 93.86 137 89C137.29 83.17 151.62 67.64 139 43C129.96 25.35 107.33 15.72 82 16C52.33 16.33 37.17 33.33 31 44C28.51 48.31 26.47 59.69 29 70C31.33 79.52 38 88 38 92C38 96.17 24.67 104.83 19 122C13.33 139.17 17 157 17 157L15 158C15 158 12 173.17 19 192C13.5 202.17 14.17 221.67 21 229C18.5 234.17 21 240.83 28 241C29 248.67 38 257 46 257C47.17 261.67 55 278.17 64 255C66.83 246 62.5 232.83 55 228C57.33 223.67 58.5 219 58 217Z" />
</svg>