<svg xmlns="http://www.w3.org/2000/svg" viewBox="0 0 197 185" width="197" height="185">
	<style>
		tspan { white-space:pre }
		.shp0 { fill: #ffffff } 
	</style>
	<path class="shp0" d="M140 153C140 153 164.77 152.94 174 152C185.8 150.8 191.2 141.4 191 137C190.8 132.6 185 119.4 163 110C170.4 93.6 169.6 61.8 162 45C153.16 25.46 143 4.2 109 13C108.8 9.8 107.5 9.87 106 10C104.5 10.12 106 14 106 14C106 14 96.06 15.75 89 23C88.31 21.25 87.62 15.5 85 16C82.37 16.5 84.37 23.25 86 26C84.12 27.62 83 30 83 30C83 30 73.37 31.37 72 41C70.62 50.63 75 54 75 54C75 54 73.5 57.42 74 61C73.17 59.92 68 53 68 53C68 53 68.42 51.58 67 50C65.58 48.42 63.83 48.67 63 50C62.17 51.33 62.33 52.25 63 53C63.67 53.75 66 55 66 55L71 62C71 62 67 63.25 67 67C67 70.17 68 71 68 71C68 71 64.5 71.17 62 75C58 71.5 46.75 71.25 39 72C31.25 72.75 16.13 88.13 11 96C5.87 103.87 -1.63 123.5 15 139C31.62 154.5 36.37 158.25 41 160C45.62 161.75 80.37 164.38 110 161C115.25 167.5 125 174 125 174C125 174 147.25 167 151 160C149 157.37 144.75 156.62 140 153Z" />
</svg>