<svg xmlns="http://www.w3.org/2000/svg" viewBox="0 0 137 273" width="137" height="273">
	<style>
		tspan { white-space:pre }
		.shp0 { fill: #ffffff } 
	</style>
	<path class="shp0" d="M97 115C97 115 123.91 102 125 65C125.83 36.67 99 20 99 20C99 20 101.42 15 107 15C112.58 15 115 19 115 19L118 18C118 18 114.25 10.83 107 11C99.75 11.17 95 17 95 17C95 17 79.5 9 65 10C64.5 9.67 53.42 8.58 49 14C47 14.25 14.33 29.67 13 65C12 97.83 38 110 38 110C38 110 31.75 111.67 32 119C29.08 120.08 6 150.57 15 175C14.14 179.57 20 182 20 182C20 182 17.29 205.29 17 229C19.57 231.57 29 232 29 232L28 252C28 252 26.86 266.71 46 266C65.14 265.29 64.71 250.43 58 244C57.71 241.71 58 233 58 233L65 232L67 224L70 224C70 224 71.14 232.43 72 233C72.86 233.57 76 234 76 234L77 250C77 250 77.71 254 90 256C102.29 258 110.86 252.86 111 250C111.14 247.14 103 237 103 237L102 232C102 232 108.86 229.29 109 228C109.14 226.71 107 206 107 206C107 206 120.71 201.57 119 189C117.29 176.43 107 174 107 174C107 174 106.86 149.43 107 139C107.14 128.57 97 115 97 115Z" />
</svg>